<?xml version="1.0" encoding="UTF-8" standalone="no"?>
<svg
   xmlns:dc="http://purl.org/dc/elements/1.1/"
   xmlns:cc="http://creativecommons.org/ns#"
   xmlns:rdf="http://www.w3.org/1999/02/22-rdf-syntax-ns#"
   xmlns:svg="http://www.w3.org/2000/svg"
   xmlns="http://www.w3.org/2000/svg"
   xmlns:sodipodi="http://sodipodi.sourceforge.net/DTD/sodipodi-0.dtd"
   xmlns:inkscape="http://www.inkscape.org/namespaces/inkscape"
   id="svg1693"
   version="1.1"
   fill="none"
   viewBox="0 0 46 45"
   height="45"
   width="46"
   sodipodi:docname="success_icon.svg"
   inkscape:version="0.92.4 (5da689c313, 2019-01-14)">
  <sodipodi:namedview
     pagecolor="#ffffff"
     bordercolor="#666666"
     borderopacity="1"
     objecttolerance="10"
     gridtolerance="10"
     guidetolerance="10"
     inkscape:pageopacity="0"
     inkscape:pageshadow="2"
     inkscape:window-width="1600"
     inkscape:window-height="800"
     id="namedview6"
     showgrid="false"
     inkscape:zoom="5.2444444"
     inkscape:cx="23"
     inkscape:cy="22.5"
     inkscape:window-x="0"
     inkscape:window-y="32"
     inkscape:window-maximized="1"
     inkscape:current-layer="svg1693" />
  <metadata
     id="metadata1699">
    <rdf:RDF>
      <cc:Work
         rdf:about="">
        <dc:format>image/svg+xml</dc:format>
        <dc:type
           rdf:resource="http://purl.org/dc/dcmitype/StillImage" />
        <dc:title />
      </cc:Work>
    </rdf:RDF>
  </metadata>
  <defs
     id="defs1697" />
  <path
     id="circle1687"
     d="M 23,0.36914056 A 22.1306,22.1306 0 0 0 0.86914069,22.499999 22.1306,22.1306 0 0 0 23,44.630859 22.1306,22.1306 0 0 0 45.130859,22.499999 22.1306,22.1306 0 0 0 23,0.36914056 Z M 31.052734,15.312499 c 0.255619,10e-7 0.511163,0.0971 0.707031,0.292969 0.391738,0.391737 0.391738,1.022326 0,1.414063 L 20.148437,28.630859 c -0.235452,0.235452 -0.55503,0.311256 -0.859375,0.263672 -0.304009,0.04717 -0.622262,-0.02851 -0.857422,-0.263672 l -4.113281,-4.113281 c -0.391737,-0.391738 -0.391737,-1.022326 0,-1.414063 0.391737,-0.391737 1.022325,-0.391737 1.414063,0 l 3.55664,3.556641 11.056641,-11.054688 c 0.195868,-0.195868 0.451412,-0.292969 0.707031,-0.292969 z"
     style="fill:#d4ffa2;fill-opacity:0.90833336" />
</svg>
