<?xml version="1.0" encoding="UTF-8" standalone="no"?>
<svg
   xmlns:dc="http://purl.org/dc/elements/1.1/"
   xmlns:cc="http://creativecommons.org/ns#"
   xmlns:rdf="http://www.w3.org/1999/02/22-rdf-syntax-ns#"
   xmlns:svg="http://www.w3.org/2000/svg"
   xmlns="http://www.w3.org/2000/svg"
   xmlns:sodipodi="http://sodipodi.sourceforge.net/DTD/sodipodi-0.dtd"
   xmlns:inkscape="http://www.inkscape.org/namespaces/inkscape"
   width="60.215305"
   height="48"
   viewBox="0 0 60.215305 48"
   version="1.1"
   id="svg4"
   sodipodi:docname="tablesGroup.svg"
   style="fill:none"
   inkscape:version="0.92.4 (5da689c313, 2019-01-14)">
  <metadata
     id="metadata10">
    <rdf:RDF>
      <cc:Work
         rdf:about="">
        <dc:format>image/svg+xml</dc:format>
        <dc:type
           rdf:resource="http://purl.org/dc/dcmitype/StillImage" />
        <dc:title></dc:title>
      </cc:Work>
    </rdf:RDF>
  </metadata>
  <defs
     id="defs8" />
  <sodipodi:namedview
     pagecolor="#ffffff"
     bordercolor="#666666"
     borderopacity="1"
     objecttolerance="10"
     gridtolerance="10"
     guidetolerance="10"
     inkscape:pageopacity="0"
     inkscape:pageshadow="2"
     inkscape:window-width="1600"
     inkscape:window-height="800"
     id="namedview6"
     showgrid="false"
     fit-margin-top="0"
     fit-margin-left="0"
     fit-margin-right="0"
     fit-margin-bottom="0"
     inkscape:zoom="3.4766083"
     inkscape:cx="-14.484799"
     inkscape:cy="42.181833"
     inkscape:window-x="0"
     inkscape:window-y="32"
     inkscape:window-maximized="1"
     inkscape:current-layer="svg4" />
  <g
     id="g839">
    <g
       id="g823">
      <path
         style="fill:#f5f6fa"
         inkscape:connector-curvature="0"
         d="M 1.07692,9.23864 0,8.72727 V 6.54545 L 14,0 28,6.54545 v 2.18182 l -1.0769,0.51137 v 9.10226 c 0,0.4318 -0.1487,0.7557 -0.4459,0.9716 -0.2973,0.2159 -0.6871,0.3239 -1.1695,0.3239 -0.4824,0 -0.8722,-0.108 -1.1695,-0.3239 -0.2973,-0.2159 -0.4459,-0.5398 -0.4459,-0.9716 v -7.6023 l -8.0769,3.7841 v 8.1818 c 0,0.4319 -0.1487,0.7557 -0.4459,0.9716 C 14.8722,23.892 14.4824,24 14,24 13.5176,24 13.1278,23.892 12.8305,23.6761 12.5333,23.4602 12.3846,23.1364 12.3846,22.7045 V 14.5227 L 4.30769,10.7386 v 7.6023 c 0,0.4318 -0.14864,0.7557 -0.44591,0.9716 -0.29728,0.2159 -0.6871,0.3239 -1.16947,0.3239 -0.48237,0 -0.8722,-0.108 -1.16947,-0.3239 C 1.22556,19.0966 1.07692,18.7727 1.07692,18.3409 Z"
         id="path2" />
      <path
         id="path817"
         d="M 33.292226,9.23864 32.215306,8.72727 V 6.54545 l 14,-6.54545 14,6.54545 v 2.18182 l -1.0769,0.51137 v 9.10226 c 0,0.4318 -0.1487,0.7557 -0.4459,0.9716 -0.2973,0.2159 -0.6871,0.3239 -1.1695,0.3239 -0.4824,0 -0.8722,-0.108 -1.1695,-0.3239 -0.2973,-0.2159 -0.4459,-0.5398 -0.4459,-0.9716 v -7.6023 l -8.0769,3.7841 v 8.1818 c 0,0.4319 -0.1487,0.7557 -0.4459,0.9716 -0.2973,0.2159 -0.6871,0.3239 -1.1695,0.3239 -0.4824,0 -0.8722,-0.108 -1.1695,-0.3239 -0.2972,-0.2159 -0.4459,-0.5397 -0.4459,-0.9716 v -8.1818 l -8.07691,-3.7841 v 7.6023 c 0,0.4318 -0.14864,0.7557 -0.44591,0.9716 -0.29728,0.2159 -0.6871,0.3239 -1.16947,0.3239 -0.48237,0 -0.8722,-0.108 -1.16947,-0.3239 -0.29728,-0.2159 -0.44592,-0.5398 -0.44592,-0.9716 z"
         inkscape:connector-curvature="0"
         style="fill:#f5f6fa" />
    </g>
    <path
       id="path819"
       d="m 17.184573,33.23864 -1.07692,-0.51137 v -2.18182 l 14,-6.54545 14,6.54545 v 2.18182 l -1.0769,0.51137 v 9.10226 c 0,0.4318 -0.1487,0.7557 -0.4459,0.9716 -0.2973,0.2159 -0.6871,0.3239 -1.1695,0.3239 -0.4824,0 -0.8722,-0.108 -1.1695,-0.3239 -0.2973,-0.2159 -0.4459,-0.5398 -0.4459,-0.9716 v -7.6023 l -8.0769,3.7841 v 8.1818 c 0,0.4319 -0.1487,0.7557 -0.4459,0.9716 -0.2973,0.2159 -0.6871,0.3239 -1.1695,0.3239 -0.4824,0 -0.8722,-0.108 -1.1695,-0.3239 -0.2972,-0.2159 -0.4459,-0.5397 -0.4459,-0.9716 v -8.1818 l -8.07691,-3.7841 v 7.6023 c 0,0.4318 -0.14864,0.7557 -0.44591,0.9716 -0.29728,0.2159 -0.6871,0.3239 -1.16947,0.3239 -0.48237,0 -0.8722,-0.108 -1.16947,-0.3239 -0.29728,-0.2159 -0.44592,-0.5398 -0.44592,-0.9716 z"
       inkscape:connector-curvature="0"
       style="fill:#f5f6fa" />
  </g>
</svg>
