<?xml version="1.0" encoding="UTF-8" standalone="no"?>
<svg
   xmlns:dc="http://purl.org/dc/elements/1.1/"
   xmlns:cc="http://creativecommons.org/ns#"
   xmlns:rdf="http://www.w3.org/1999/02/22-rdf-syntax-ns#"
   xmlns:svg="http://www.w3.org/2000/svg"
   xmlns="http://www.w3.org/2000/svg"
   xmlns:sodipodi="http://sodipodi.sourceforge.net/DTD/sodipodi-0.dtd"
   xmlns:inkscape="http://www.inkscape.org/namespaces/inkscape"
   id="svg2324"
   version="1.1"
   fill="none"
   viewBox="0 0 51 51"
   height="51"
   width="51"
   sodipodi:docname="warning_icon.svg"
   inkscape:version="0.92.4 (5da689c313, 2019-01-14)">
  <sodipodi:namedview
     pagecolor="#ffffff"
     bordercolor="#666666"
     borderopacity="1"
     objecttolerance="10"
     gridtolerance="10"
     guidetolerance="10"
     inkscape:pageopacity="0"
     inkscape:pageshadow="2"
     inkscape:window-width="1600"
     inkscape:window-height="800"
     id="namedview6"
     showgrid="false"
     inkscape:zoom="4.627451"
     inkscape:cx="25.5"
     inkscape:cy="25.5"
     inkscape:window-x="0"
     inkscape:window-y="32"
     inkscape:window-maximized="1"
     inkscape:current-layer="svg2324" />
  <metadata
     id="metadata2330">
    <rdf:RDF>
      <cc:Work
         rdf:about="">
        <dc:format>image/svg+xml</dc:format>
        <dc:type
           rdf:resource="http://purl.org/dc/dcmitype/StillImage" />
        <dc:title />
      </cc:Work>
    </rdf:RDF>
  </metadata>
  <defs
     id="defs2328" />
  <path
     style="fill:#ffecbd;stroke-width:1.18356252;fill-opacity:0.98750001"
     id="path2320"
     d="m 25.499833,5.0835502 c -1.195815,0 -2.391162,0.5917811 -3.074491,1.7753435 L 2.9497319,40.590415 C 1.5830725,42.95754 3.2932127,45.91645 6.026531,45.91645 h 38.948908 c 2.733319,0 4.441149,-2.95891 3.074489,-5.326035 L 28.574312,6.8588937 C 27.89099,5.6753313 26.695645,5.0835502 25.499833,5.0835502 Z M 24.205303,23.38022 h 2.589047 l -0.2173,7.831856 h -2.161382 z m 1.29453,9.207283 c 0.914174,0 1.472513,0.517735 1.472513,1.35925 0,0.833343 -0.558339,1.350004 -1.472513,1.350004 -0.906261,0 -1.472519,-0.516661 -1.472519,-1.350004 0,-0.841515 0.566258,-1.35925 1.472519,-1.35925 z" />
</svg>
